<svg xmlns="http://www.w3.org/2000/svg" width="400" height="300" viewBox="0 0 30 32">
<!-- person -->
  <g transform="translate(3,8) scale(0.65)">
    <path d="M 2 0 C -5 -1 -6 -5 0 -6 C 4 -6 2 -1 0 3 S -0.3333 14 0 21 M -1 12 C -3 14 -3.6667 18 -5 21 M -7 11 C -6 7 -6 3 0 3 C 0 5 5 4 3 10" 
        stroke="blue" stroke-width="1" stroke-linecap="round" fill="none" />
  </g>
  <!-- cash -->
  <g transform="translate(27,25)">
    <path d="M 0 0 C 4 -2 5 3 8 1 L 6 4 C 3 4 1 1 -2 2 Z" 
        stroke="green" stroke-width="1" stroke-linecap="round" fill="none" />
  </g>

  <!-- Arrow -->
    <g transform="translate(11,1)">
    <path d="M 20 20 C 17.3333 16 14.6667 12 12 8 S 4 7.3333 0 7 C 4 5 4 1 4 4 C 0 9 -4 5 6 10" 
        stroke="blue" stroke-width="1" stroke-linecap="round" fill="none" />
  </g>
</svg>